<svg xmlns="http://www.w3.org/2000/svg" version="1.1" xmlns:xlink="http://www.w3.org/1999/xlink" xmlns:svgjs="http://svgjs.dev/svgjs" width="100%" height="100%" viewBox="0 0 1000 600"><rect width="1000" height="600" x="0" y="0" fill="#8bd8bd"/><g><rect width="333.3333333333333" height="333.3333333333333" y="112.58492824081331" fill="#243665" transform="matrix(1.383313955530419,0,0,1.383313955530419,0,-86.29264110268991)" x="90.3626937866211"/><path d="M304.5669807599128 315.35847343319864L299.2231059069792 344.9926885267394L238.9259083685308 344.9926885267394C238.29721720936212 325.04603265857014 238.29721720936212 304.8707618234306 238.29721720936212 282.0378419972599L274.53268947417376 282.0378419972599L277.39037656130404 303.6419563759646L285.8491303392096 303.6419563759646L285.8491303392096 251.57489764845135L277.39037656130404 251.57489764845135L274.3040745072034 273.8077031863247L238.29721720936212 273.8077031863247C238.29721720936212 252.80370309591737 238.29721720936212 232.65700913164906 238.9259083685308 213.3104675517772L295.1080365015116 213.3104675517772L300.6519494505443 242.94468264531795L310.7395848681141 242.94468264531795L309.28216445367764 204.2515994855743L199.20405785742025 204.2515994855743L199.20405785742025 211.45297094514254L220.60813414002584 213.71054374397545C221.2368252991945 233.48573838691684 221.2368252991945 253.6324323511851 221.2368252991945 273.6076650902256L221.2368252991945 284.92410595526144C221.2368252991945 305.0707999195297 221.2368252991945 325.04603265857014 220.60813414002584 344.5926123345411L199.20405785742025 346.85018513337405L199.20405785742025 354.2515946890414L313.3972338591452 354.2515946890414L314.8546542735817 315.35847343319864Z " fill="#8bd8bd" transform="matrix(1.383313955530419,0,0,1.383313955530419,0,-86.29264110268991)"/><path d="M616.5073484815651 213.3104675517772L622.2512995266969 243.3447588375162L632.5389730403659 243.3447588375162L630.4814383376321 204.2515994855743L508.68681468414064 204.2515994855743L507.0293561736051 243.3447588375162L517.317029687274 243.3447588375162L523.0895576032772 213.3104675517772L560.7538734116539 213.3104675517772C561.1539496038521 233.05708532384728 561.1539496038521 253.432394255086 561.1539496038521 273.6076650902256L561.1539496038521 284.92410595526144C561.1539496038521 305.0707999195297 561.1539496038521 325.04603265857014 560.7538734116539 344.5926123345411L536.8636093632449 346.85018513337405L536.8636093632449 354.2515946890414L602.504681754627 354.2515946890414L602.504681754627 346.85018513337405L578.8430326731884 344.5926123345411C578.242918384891 324.8174176915998 578.242918384891 304.6707237273315 578.242918384891 284.92410595526144L578.242918384891 273.6076650902256C578.242918384891 253.03231806288775 578.242918384891 232.85704722774815 578.8430326731884 213.3104675517772Z " fill="#243665" transform="matrix(1.383313955530419,0,0,1.383313955530419,0,-86.29264110268991)"/></g></svg>